<svg width="609" height="511" viewBox="0 0 609 511" fill="none" xmlns="http://www.w3.org/2000/svg">
<path d="M365.378 22.1402C367.248 22.4456 367.248 22.4456 369.378 23.1402C371 25.5699 372.323 27.858 373.628 30.4527C374.208 31.5815 374.208 31.5815 374.8 32.7332C380.989 45.0413 386.085 57.8667 389.589 71.1949C390.334 74.1665 390.334 74.1665 391.472 77.062C392.536 80.6763 392.574 83.7551 392.503 87.5152C392.485 88.7604 392.467 90.0056 392.448 91.2886C392.413 92.7001 392.413 92.7001 392.378 94.1402C390.378 94.1402 390.378 94.1402 388.827 92.6011C387.955 91.5686 387.955 91.5686 387.065 90.5152C386.449 89.7907 385.833 89.0663 385.198 88.3199C384.297 87.2409 384.297 87.2409 383.378 86.1402C382.86 85.524 382.341 84.9078 381.808 84.273C380.658 82.9004 379.517 81.5211 378.378 80.1402C378.017 88.8163 379.15 97.2542 380.315 105.828C383.951 132.738 384.416 159.218 381.503 186.203C381.416 187.01 381.329 187.818 381.239 188.65C380.437 195.969 379.577 203.256 378.308 210.511C374.72 231.212 374.161 254.702 379.378 275.14C379.778 276.813 379.778 276.813 380.186 278.519C383.699 291.492 390.392 303.192 399.378 313.14C400.042 313.897 400.706 314.654 401.39 315.433C407.545 322.044 414.651 326.595 422.378 331.14C423.234 331.647 424.09 332.153 424.972 332.675C443.112 342.562 465.589 342.511 485.378 338.14C486.474 337.903 487.569 337.666 488.698 337.421C502.653 333.534 515.333 325.515 525.378 315.14C526.105 314.411 526.832 313.681 527.581 312.929C536.104 303.932 540.732 293.658 540.753 281.265C540.777 280.501 540.802 279.736 540.827 278.949C540.863 271.836 538.631 266.75 534.003 261.39C526.66 255.097 520.321 252.782 510.815 252.765C510.093 252.741 509.37 252.716 508.626 252.691C496.758 252.629 486.268 257.843 476.065 263.39C473.877 264.551 471.688 265.711 469.499 266.871C467.927 267.711 467.927 267.711 466.323 268.567C450.256 277.148 434.143 285.194 415.378 283.14C406.189 280.127 398.677 274.773 394.065 266.203C390.344 258.541 390.051 250.865 390.128 242.515C390.135 241.448 390.143 240.382 390.151 239.283C390.339 225.441 392.788 213.155 397.378 200.14C397.6 199.499 397.821 198.858 398.05 198.197C403.057 183.942 410.534 169.054 424.003 161.203C432.231 157.456 440.388 158.123 448.753 161.14C460.226 166.045 470.997 172.245 481.378 179.14C482.949 180.172 484.521 181.203 486.093 182.234C523.232 206.698 523.232 206.698 538.378 222.14C539.047 222.8 539.716 223.46 540.405 224.14C550.688 234.907 554.78 248.029 554.69 262.64C554.685 263.608 554.679 264.575 554.673 265.572C554.176 295.337 540.182 321.37 519.378 342.14C515.83 345.307 512.157 348.256 508.378 351.14C507.588 351.758 506.797 352.375 505.983 353.011C486.041 367.861 461.425 373.062 436.999 370.832C434.08 370.392 431.249 369.824 428.378 369.14C427.334 368.895 426.29 368.65 425.214 368.398C412.093 364.859 402.02 357.491 392.378 348.14C391.459 347.332 391.459 347.332 390.522 346.507C372.715 330.289 364.868 303.332 363.378 280.14C363.135 274.558 362.969 268.975 362.815 263.39C362.772 261.903 362.728 260.416 362.684 258.929C362.579 255.333 362.477 251.737 362.378 248.14C361.867 249.147 361.356 250.155 360.829 251.193C347.187 277.955 325.7 301.635 301.378 319.14C300.772 319.58 300.166 320.02 299.541 320.473C257.376 350.85 205.406 373.033 152.334 365.371C132.84 361.938 115.178 354.441 100.378 341.14C99.7204 340.554 99.063 339.967 98.3857 339.363C86.6289 328.259 80.0639 313.655 76.3778 298.14C76.1108 297.096 76.1108 297.096 75.8383 296.03C74.0391 288.29 73.9811 280.544 74.0028 272.64C74.0031 271.932 74.0033 271.223 74.0035 270.493C74.037 259.243 75.0157 248.912 78.3778 238.14C78.7285 236.905 79.0791 235.67 79.4403 234.398C84.968 216.241 94.1988 200.592 105.008 185.107C106.152 183.465 107.268 181.805 108.378 180.14C109.038 180.47 109.698 180.8 110.378 181.14C109.893 181.979 109.408 182.819 108.909 183.683C99.7674 199.916 93.806 216.857 90.3778 235.14C90.1142 236.315 90.1142 236.315 89.8451 237.513C86.235 257.809 89.0759 281.399 100.19 298.953C101.224 300.37 102.289 301.765 103.378 303.14C104.312 304.353 104.312 304.353 105.265 305.589C119.255 322.476 141.774 330.245 162.968 332.789C177.535 334.106 191.939 333.593 206.248 330.58C208.341 330.148 210.437 329.771 212.542 329.402C254.914 321.527 296.058 296.5 326.761 266.706C328.463 265.058 330.184 263.432 331.905 261.804C337.907 256.051 343.437 250.15 348.378 243.453C348.798 242.884 349.219 242.315 349.652 241.729C350.952 239.898 352.167 238.031 353.378 236.14C353.884 235.358 354.389 234.576 354.91 233.771C359.106 226.775 360.237 221.441 360.069 213.355C360.069 212.241 360.069 211.126 360.069 209.978C360.058 206.344 360.001 202.712 359.94 199.078C359.918 196.535 359.897 193.993 359.877 191.451C359.622 167.778 358.319 144.184 356.558 120.58C356.395 118.378 356.239 116.175 356.088 113.972C355.312 102.702 354.254 91.4852 352.94 80.2652C352.821 79.2266 352.701 78.188 352.578 77.118C351.99 72.266 351.291 67.5078 350.237 62.7339C347.668 50.8389 347.668 50.8389 349.725 45.9136C351.774 43.111 354.001 40.6672 356.378 38.1402C357.715 36.2123 359.008 34.2536 360.253 32.2652C360.807 31.4015 361.361 30.5378 361.933 29.648C363.342 27.2015 364.401 24.7857 365.378 22.1402Z" fill="white"/>
<path d="M461.068 166.996C468.075 170.687 474.782 174.759 481.378 179.14C482.949 180.172 484.521 181.203 486.093 182.234C523.232 206.698 523.232 206.698 538.378 222.14C539.047 222.8 539.716 223.46 540.405 224.14C550.688 234.907 554.78 248.029 554.69 262.64C554.685 263.608 554.679 264.575 554.673 265.572C554.379 283.15 549.778 300.167 540.378 315.14C538.816 313.111 537.437 311.261 536.315 308.953C535.511 306.961 535.511 306.961 533.378 306.14C533.716 305.488 534.053 304.836 534.401 304.164C534.847 303.29 535.293 302.416 535.753 301.515C536.414 300.227 536.414 300.227 537.089 298.914C539.894 292.877 540.742 287.839 540.753 281.265C540.777 280.501 540.802 279.736 540.827 278.949C540.863 271.836 538.631 266.75 534.003 261.39C526.66 255.097 520.321 252.782 510.815 252.765C510.093 252.741 509.37 252.716 508.626 252.691C496.758 252.629 486.268 257.843 476.065 263.39C473.877 264.551 471.688 265.711 469.499 266.871C468.451 267.431 467.403 267.991 466.323 268.567C450.256 277.148 434.143 285.194 415.378 283.14C406.189 280.127 398.677 274.773 394.065 266.203C390.344 258.541 390.051 250.865 390.128 242.515C390.135 241.449 390.143 240.382 390.151 239.283C390.339 225.441 392.788 213.155 397.378 200.14C397.6 199.499 397.821 198.858 398.05 198.197C403.057 183.942 410.534 169.054 424.003 161.203C437.077 155.249 449.235 160.917 461.068 166.996Z" fill="white"/>
<path d="M257.378 23.1402C259.255 23.4395 259.255 23.4395 261.378 24.1402C262.882 26.5989 264.115 28.9137 265.315 31.5152C265.664 32.2461 266.014 32.9771 266.373 33.7303C267.071 35.197 267.762 36.6668 268.447 38.1397C269.212 39.7847 270.001 41.4191 270.796 43.0503C278.919 60.0599 283.685 77.3278 284.378 96.1402C280.988 92.7987 277.736 89.377 274.565 85.8277C273.775 84.9447 272.985 84.0617 272.171 83.1519C271.579 82.488 270.987 81.8242 270.378 81.1402C270.832 91.7173 271.482 102.234 272.629 112.76C273.932 124.845 274.538 136.931 274.878 149.078C274.948 151.587 275.021 154.096 275.097 156.605C275.127 157.694 275.157 158.783 275.188 159.906C275.326 163.671 275.611 167.423 275.883 171.181C276.4 178.797 276.555 186.382 276.581 194.015C276.585 195.027 276.585 195.027 276.589 196.06C276.604 199.633 276.614 203.206 276.618 206.779C276.622 209.672 276.636 212.565 276.659 215.458C276.916 248.781 275.904 287.446 251.378 313.14C251.048 313.14 250.718 313.14 250.378 313.14C250.478 311.424 250.579 309.707 250.679 307.99C250.769 306.462 250.858 304.934 250.947 303.406C251.172 299.567 251.402 295.728 251.648 291.89C256.645 213.506 255.525 129.848 240.665 52.4273C240.347 48.7914 240.652 47.7087 242.729 44.8003C243.251 44.0469 243.773 43.2934 244.311 42.5171C244.87 41.7534 245.428 40.9896 246.003 40.2027C247.079 38.6734 248.155 37.1435 249.229 35.6128C249.756 34.8744 250.282 34.1359 250.824 33.375C253.14 30.044 255.272 26.6065 257.378 23.1402Z" fill="white"/>
<path d="M450.475 197.14C467.132 205.543 483.216 215.277 498.378 226.14C497.378 229.14 497.378 229.14 495.071 230.395C494.06 230.802 493.049 231.209 492.007 231.628C490.884 232.085 489.761 232.541 488.604 233.011C487.395 233.487 486.186 233.962 484.94 234.453C483.699 234.948 482.458 235.443 481.216 235.939C430.279 256.156 430.279 256.156 413.866 250.234C407.794 246.625 403.139 241.369 400.886 234.597C398.444 222.783 400.954 212.449 407.128 202.328C418.237 186.582 435.12 189.586 450.475 197.14Z" fill="#78C2AD"/>
<path d="M322.94 1.70266C329.637 4.93128 333.571 10.3441 336.378 17.1402C340.032 30.7583 337.987 47.2552 331.815 59.7027C324.676 71.852 312.634 83.6714 299.003 88.2652C297.807 88.5539 296.61 88.8427 295.378 89.1402C298.615 83.869 302.537 79.5896 306.815 75.1402C308.128 73.7667 309.439 72.3917 310.749 71.0152C311.681 70.0368 311.681 70.0368 312.631 69.0386C314.241 67.2895 315.741 65.4952 317.226 63.6402C317.936 62.8152 318.646 61.9902 319.378 61.1402C320.038 61.1402 320.698 61.1402 321.378 61.1402C321.708 60.1502 322.038 59.1602 322.378 58.1402C323.038 58.1402 323.698 58.1402 324.378 58.1402C324.625 57.5833 324.873 57.0264 325.128 56.4527C326.593 53.7415 328.433 51.5239 330.378 49.1402C329.586 49.1506 328.794 49.1611 327.979 49.1719C324.383 49.2135 320.787 49.2395 317.19 49.2652C315.945 49.2819 314.699 49.2987 313.415 49.3159C312.213 49.3224 311.011 49.3288 309.772 49.3355C308.115 49.3512 308.115 49.3512 306.424 49.3672C302.474 49.0728 299.585 48.199 296.593 45.5738C294.732 41.8469 294.889 38.3143 294.94 34.2027C294.949 33.356 294.957 32.5093 294.966 31.637C295.241 21.3108 297.175 12.1918 304.655 4.6636C310.557 -0.555552 315.579 -1.16783 322.94 1.70266Z" fill="white"/>
<path d="M322.655 149.765C329.745 152.813 333.895 159.105 336.769 166.076C337.984 170.196 337.907 174.375 337.878 178.64C337.872 179.611 337.866 180.582 337.86 181.583C337.495 196.455 331.93 209.359 321.753 220.265C314.081 227.505 305.196 233.313 295.378 237.14C297.114 232.899 300.086 229.737 303.065 226.328C303.631 225.675 304.197 225.023 304.78 224.351C309.724 218.729 314.955 213.429 320.351 208.241C323.924 204.769 326.78 201.397 329.378 197.14C327.997 197.158 327.997 197.158 326.589 197.175C322.517 197.204 318.449 197.189 314.378 197.14C312.429 197.117 312.429 197.117 310.44 197.093C309.223 197.047 308.007 197 306.753 196.953C305.647 196.918 304.541 196.883 303.401 196.847C299.234 195.873 297.82 194.662 295.378 191.14C294.68 187.745 294.714 184.47 294.815 181.015C294.83 180.075 294.846 179.136 294.861 178.167C295.164 168.754 297.252 160.527 303.378 153.14C308.944 147.982 315.559 147.818 322.655 149.765Z" fill="white"/>
<path d="M157.378 207.14C161.288 208.579 164.705 210.423 168.265 212.582C169.367 213.247 170.47 213.913 171.606 214.599C172.759 215.3 173.912 216.001 175.065 216.703C177.339 218.08 179.614 219.456 181.89 220.832C182.895 221.442 183.9 222.052 184.935 222.681C187.274 224.119 187.274 224.119 189.378 225.14C188.111 228.474 186.681 231.531 184.882 234.609C184.405 235.427 183.929 236.246 183.438 237.089C182.697 238.352 182.697 238.352 181.94 239.64C181.45 240.482 180.959 241.324 180.454 242.191C178.121 246.19 175.773 250.178 173.378 254.14C168.27 253.598 164.493 251.117 160.19 248.515C159.44 248.068 158.69 247.621 157.917 247.16C152.22 243.731 146.72 240.104 141.378 236.14C142.058 232.185 144.005 228.992 146.003 225.578C146.356 224.966 146.709 224.355 147.073 223.726C150.351 218.097 153.817 212.593 157.378 207.14Z" fill="white"/>
<path d="M433.378 91.1401C443.977 96.6826 454.152 102.946 464.378 109.14C463.816 112.709 462.936 115.268 461.015 118.32C460.302 119.466 460.302 119.466 459.575 120.636C459.077 121.421 458.579 122.206 458.065 123.015C457.089 124.574 456.114 126.134 455.14 127.695C454.672 128.441 454.205 129.187 453.723 129.956C451.863 132.975 450.114 136.048 448.378 139.14C442.662 137.024 437.638 133.875 432.429 130.745C430.689 129.702 428.943 128.67 427.196 127.638C426.097 126.98 424.998 126.322 423.866 125.644C422.861 125.044 421.856 124.444 420.82 123.826C418.378 122.14 418.378 122.14 416.378 119.14C418.645 115.221 420.917 111.305 423.19 107.39C424.154 105.723 424.154 105.723 425.138 104.023C425.76 102.953 426.382 101.883 427.022 100.781C427.593 99.7962 428.164 98.8117 428.752 97.7974C430.182 95.4606 431.69 93.2949 433.378 91.1401Z" fill="white"/>
<path d="M310.378 358.14C318.921 362.042 326.723 367.004 334.626 372.036C336.855 373.441 339.111 374.798 341.378 376.14C340.826 380.88 338.664 384.418 336.19 388.39C335.788 389.049 335.385 389.708 334.97 390.386C331.895 395.386 328.715 400.311 325.378 405.14C321.49 404.565 318.822 403.429 315.507 401.339C314.602 400.774 313.698 400.209 312.766 399.626C311.834 399.033 310.901 398.439 309.94 397.828C309.012 397.246 308.083 396.664 307.126 396.064C302.498 393.155 297.906 390.202 293.378 387.14C295.132 383.506 297.121 380.013 299.128 376.515C299.48 375.901 299.832 375.286 300.194 374.653C308.74 359.778 308.74 359.778 310.378 358.14Z" fill="white"/>
<path d="M184.378 257.14C187.986 258.493 191.223 260.111 194.538 262.074C195.496 262.64 196.455 263.207 197.442 263.791C198.926 264.675 198.926 264.675 200.44 265.578C201.434 266.164 202.427 266.749 203.45 267.353C207.57 269.797 211.589 272.199 215.378 275.14C214.771 277.947 213.931 280.215 212.522 282.714C211.963 283.71 211.963 283.71 211.393 284.726C210.798 285.766 210.798 285.766 210.19 286.828C209.788 287.538 209.385 288.248 208.97 288.98C205.991 294.186 202.846 299.244 199.378 304.14C195.294 302.645 191.714 300.673 187.983 298.445C187.391 298.093 186.799 297.74 186.189 297.377C184.312 296.26 182.439 295.138 180.565 294.015C179.288 293.253 178.01 292.491 176.731 291.73C173.611 289.87 170.494 288.007 167.378 286.14C168.679 282.685 170.19 279.58 172.093 276.417C172.875 275.115 172.875 275.115 173.673 273.787C174.215 272.893 174.757 271.999 175.315 271.078C175.853 270.18 176.392 269.282 176.946 268.357C179.282 264.483 181.611 260.725 184.378 257.14Z" fill="white"/>
<path d="M194.378 134.14C195.038 134.14 195.698 134.14 196.378 134.14C196.398 135.326 196.418 136.511 196.438 137.733C196.514 142.14 196.603 146.548 196.695 150.955C196.733 152.861 196.768 154.767 196.8 156.673C196.846 159.416 196.903 162.159 196.964 164.902C196.975 165.751 196.987 166.6 196.999 167.475C197.105 171.741 197.26 175.315 199.378 179.14C202.442 180.672 204.994 180.37 208.378 180.14C210.691 178.984 212.552 177.966 214.378 176.14C215.46 169.029 212.137 164.012 208.378 158.14C207.573 157.233 206.769 156.325 205.94 155.39C204.378 153.14 204.378 153.14 204.503 149.765C205.368 146.182 206.299 142.664 207.378 139.14C209.151 139.273 209.151 139.273 211.378 140.14C218.908 150.53 221.805 162.743 220.065 175.417C218.793 182.062 216.617 188.376 211.565 193.078C207.901 195.449 205.748 196.299 201.378 196.14C196.058 192.271 193.88 187.138 192.811 180.761C192.121 174.699 192.187 168.609 192.19 162.515C192.19 161.272 192.189 160.029 192.188 158.749C192.237 150.38 192.649 142.352 194.378 134.14Z" fill="white"/>
<path d="M322.761 149.906C326.538 151.662 329.259 153.432 331.378 157.14C329.503 158.203 329.503 158.203 327.378 159.14C326.718 158.81 326.058 158.48 325.378 158.14C324.388 158.635 324.388 158.635 323.378 159.14C323.378 159.8 323.378 160.46 323.378 161.14C324.038 161.47 324.698 161.8 325.378 162.14C324.388 162.635 324.388 162.635 323.378 163.14C324.698 164.79 326.018 166.44 327.378 168.14C326.718 168.47 326.058 168.8 325.378 169.14C325.667 169.767 325.955 170.393 326.253 171.039C326.624 171.856 326.995 172.673 327.378 173.515C327.749 174.327 328.12 175.139 328.503 175.976C329.378 178.14 329.378 178.14 329.378 180.14C326.024 180.228 322.67 180.281 319.315 180.328C318.372 180.353 317.429 180.378 316.458 180.404C310.611 180.465 306.565 179.881 301.378 177.14C301.41 175.122 301.443 173.104 301.475 171.085C301.504 169.058 301.504 169.058 300.378 167.14C300.708 166.15 301.038 165.16 301.378 164.14C300.388 164.635 300.388 164.635 299.378 165.14C298.72 168.17 298.72 168.17 298.378 171.14C297.718 170.81 297.058 170.48 296.378 170.14C296.721 162.248 300.466 155.984 306.065 150.515C311.55 148.238 317.081 148.081 322.761 149.906Z" fill="white"/>
<path d="M214.378 46.1402C215.038 46.1402 215.698 46.1402 216.378 46.1402C215.999 51.9271 213.659 54.8821 210.065 59.1402C202.1 68.1103 202.1 68.1103 199.315 79.3277C199.336 80.5858 199.357 81.8439 199.378 83.1402C202.918 84.9101 206.65 84.1636 210.378 83.1402C212.474 81.7215 214.184 80.2093 215.968 78.4175C217.378 77.1402 217.378 77.1402 219.378 77.1402C218.024 85.6036 211.581 91.778 205.378 97.1402C202.612 98.815 201.624 99.1452 198.315 99.0777C195.378 98.1402 195.378 98.1402 193.503 96.1402C190.854 89.076 192.329 82.8634 195.061 76.0191C199.313 66.7207 205.009 58.7146 211.339 50.7574C213.36 48.3408 213.36 48.3408 214.378 46.1402Z" fill="white"/>
<path d="M318.378 164.14C324.643 167.488 326.823 171.752 328.847 178.314C329.022 178.917 329.197 179.519 329.378 180.14C326.024 180.228 322.67 180.281 319.315 180.328C318.372 180.353 317.429 180.378 316.458 180.404C310.611 180.465 306.565 179.881 301.378 177.14C301.791 171.866 302.668 168.963 306.378 165.14C310.186 163.236 314.249 163.423 318.378 164.14Z" fill="#78C2AD"/>
<path d="M318.378 16.1402C323.776 18.3877 326.38 22.1865 328.749 27.3706C329.378 29.1402 329.378 29.1402 329.378 31.1402C325.44 31.1981 321.503 31.2337 317.565 31.2652C316.446 31.2819 315.326 31.2987 314.173 31.3159C313.1 31.3224 312.026 31.3288 310.921 31.3355C309.436 31.3512 309.436 31.3512 307.922 31.3672C305.378 31.1402 305.378 31.1402 302.378 29.1402C301.829 26.12 301.776 24.1058 303.433 21.4487C307.9 15.9636 311.55 15.1775 318.378 16.1402Z" fill="#78C2AD"/>
<path d="M362.378 308.14C361.889 312.538 360.66 314.239 357.378 317.14C355.591 318.27 353.762 319.336 351.905 320.347C350.84 320.934 349.774 321.522 348.677 322.126C347.013 323.03 347.013 323.03 345.315 323.953C334.184 330.032 323.384 336.313 313.378 344.14C314.014 338.735 316.105 334.956 320.31 331.596C327.533 326.537 335.081 322.153 342.753 317.828C344.023 317.106 345.292 316.384 346.561 315.662C359.809 308.14 359.809 308.14 362.378 308.14Z" fill="white"/>
<path d="M337.378 100.14C338.378 103.14 338.378 103.14 337.233 105.91C333.561 111 327.172 113.176 321.69 115.828C319.244 117.042 316.806 118.271 314.37 119.507C313.769 119.812 313.167 120.117 312.547 120.43C304.768 124.415 297.598 129.241 290.378 134.14C289.388 134.635 289.388 134.635 288.378 135.14C289.52 128.147 292.773 125.258 298.378 121.14C303.072 118.244 307.894 115.622 312.753 113.015C314.029 112.319 315.305 111.623 316.581 110.925C323.442 107.187 330.356 103.568 337.378 100.14Z" fill="white"/>
<path d="M194.378 134.14C195.038 134.14 195.698 134.14 196.378 134.14C196.452 140.067 196.506 145.993 196.543 151.92C196.558 153.936 196.578 155.953 196.604 157.969C196.64 160.866 196.658 163.763 196.671 166.66C196.686 167.563 196.702 168.466 196.718 169.397C196.718 170.237 196.718 171.078 196.718 171.944C196.725 172.684 196.732 173.423 196.739 174.185C196.282 176.661 195.275 177.552 193.378 179.14C191.63 173.897 192.187 168.315 192.19 162.828C192.19 161.562 192.189 160.297 192.188 158.993C192.236 150.539 192.632 142.435 194.378 134.14Z" fill="white"/>
<path d="M281.378 76.1401C283.848 79.9563 283.816 83.9876 284.003 88.3901C284.041 89.1352 284.08 89.8803 284.12 90.6479C284.214 92.4783 284.297 94.3092 284.378 96.1401C277.692 89.476 277.692 89.476 276.378 87.1401C276.66 84.2511 277.459 81.8967 278.378 79.1401C279.038 79.1401 279.698 79.1401 280.378 79.1401C280.708 78.1501 281.038 77.1601 281.378 76.1401Z" fill="white"/>
<path d="M108.378 180.14C109.038 180.47 109.698 180.8 110.378 181.14C109.835 182.13 109.292 183.12 108.733 184.14C103.437 193.86 103.437 193.86 99.3778 204.14C97.4403 203.765 97.4403 203.765 95.3778 203.14C95.0478 202.48 94.7178 201.82 94.3778 201.14C101.378 190.64 101.378 190.64 108.378 180.14Z" fill="white"/>
<path d="M194.378 134.14C195.038 134.14 195.698 134.14 196.378 134.14C196.378 146.35 196.378 158.56 196.378 171.14C196.048 171.14 195.718 171.14 195.378 171.14C192.784 145.17 192.784 145.17 194.378 134.14Z" fill="white"/>
<path d="M214.378 160.14C217.378 161.14 217.378 161.14 218.378 163.14C218.448 165.181 218.462 167.223 218.44 169.265C218.431 170.361 218.422 171.457 218.413 172.585C218.401 173.428 218.39 174.272 218.378 175.14C217.718 175.14 217.058 175.14 216.378 175.14C216.378 173.16 216.378 171.18 216.378 169.14C215.718 169.14 215.058 169.14 214.378 169.14C214.708 168.15 215.038 167.16 215.378 166.14C215.048 165.81 214.718 165.48 214.378 165.14C214.337 163.474 214.335 161.806 214.378 160.14Z" fill="white"/>
<path d="M392.378 347.14C395.422 347.058 397.45 347.164 400.378 348.14C400.378 349.79 400.378 351.44 400.378 353.14C402.358 353.8 404.338 354.46 406.378 355.14C405.718 355.8 405.058 356.46 404.378 357.14C398.855 354.905 395.928 351.735 392.378 347.14Z" fill="white"/>
<path d="M330.609 45.869C330.891 45.9892 331.172 46.1093 331.462 46.2331C329.503 52.7581 328.222 56.9168 324.434 62.4076C321.345 65.2153 321.345 65.2153 316.378 65.0374C321.074 58.7118 325.77 52.3863 330.609 45.869Z" fill="white"/>
<path d="M307.378 83.1402C305.059 85.8192 303.06 86.8022 299.69 87.8277C298.478 88.2048 298.478 88.2048 297.241 88.5894C296.319 88.8621 296.319 88.8621 295.378 89.1402C296.755 86.5227 297.846 84.5299 300.253 82.7652C302.935 81.9762 304.715 82.4004 307.378 83.1402Z" fill="white"/>
<path d="M218.378 161.14C222.092 166.712 220.46 173.782 219.378 180.14C217.878 178.765 217.878 178.765 216.378 177.14C216.378 176.48 216.378 175.82 216.378 175.14C217.038 175.14 217.698 175.14 218.378 175.14C218.378 170.52 218.378 165.9 218.378 161.14Z" fill="white"/>
<path d="M242.378 40.1402C243.698 40.8002 245.018 41.4602 246.378 42.1402C244.728 44.4502 243.078 46.7602 241.378 49.1402C240.388 48.8102 239.398 48.4802 238.378 48.1402C240.128 42.3902 240.128 42.3902 242.378 40.1402Z" fill="white"/>
<path d="M362.378 308.14C361.898 312.454 360.632 314.306 357.378 317.14C356.718 316.15 356.058 315.16 355.378 314.14C356.368 313.15 357.358 312.16 358.378 311.14C357.718 310.81 357.058 310.48 356.378 310.14C360.128 308.14 360.128 308.14 362.378 308.14Z" fill="white"/>
<path d="M526.378 250.14C527.368 251.13 528.358 252.12 529.378 253.14C529.048 254.13 528.718 255.12 528.378 256.14C525.408 255.15 522.438 254.16 519.378 253.14C519.378 252.48 519.378 251.82 519.378 251.14C521.688 251.47 523.998 251.8 526.378 252.14C526.378 251.48 526.378 250.82 526.378 250.14Z" fill="white"/>
<path d="M511.378 202.14C515.692 202.619 517.544 203.886 520.378 207.14C519.388 207.635 519.388 207.635 518.378 208.14C516.018 207.204 513.681 206.207 511.378 205.14C511.378 204.15 511.378 203.16 511.378 202.14Z" fill="white"/>
<path d="M290.378 128.14C292.358 128.14 294.338 128.14 296.378 128.14C296.378 128.8 296.378 129.46 296.378 130.14C294.628 131.429 294.628 131.429 292.378 132.765C291.635 133.211 290.893 133.657 290.128 134.117C289.55 134.454 288.973 134.792 288.378 135.14C289.038 132.83 289.698 130.52 290.378 128.14Z" fill="white"/>
<path d="M217.378 77.1401C218.038 77.1401 218.698 77.1401 219.378 77.1401C218.75 80.0689 217.792 82.5011 216.378 85.1401C215.388 84.4801 214.398 83.8201 213.378 83.1401C214.53 80.6721 215.426 79.0923 217.378 77.1401Z" fill="white"/>
<path d="M540.378 290.14C541.368 290.14 542.358 290.14 543.378 290.14C543.378 292.12 543.378 294.1 543.378 296.14C541.728 296.8 540.078 297.46 538.378 298.14C539.038 295.5 539.698 292.86 540.378 290.14Z" fill="white"/>
<path d="M331.378 198.14C331.378 199.13 331.378 200.12 331.378 201.14C331.605 201.78 331.832 202.419 332.065 203.078C332.378 205.14 332.378 205.14 330.94 207.39C330.425 207.968 329.909 208.545 329.378 209.14C328.333 206.007 328.444 205.15 329.378 202.14C328.388 201.81 327.398 201.48 326.378 201.14C328.028 200.15 329.678 199.16 331.378 198.14Z" fill="white"/>
<path d="M302.378 227.14C304.853 228.13 304.853 228.13 307.378 229.14C307.048 230.13 306.718 231.12 306.378 232.14C305.388 232.47 304.398 232.8 303.378 233.14C302.388 232.15 301.398 231.16 300.378 230.14C301.038 229.15 301.698 228.16 302.378 227.14Z" fill="white"/>
<path d="M304.378 78.1401C305.368 78.4701 306.358 78.8001 307.378 79.1401C308.065 81.2026 308.065 81.2026 308.378 83.1401C307.45 83.0989 306.522 83.0576 305.565 83.0151C302.22 82.8688 302.22 82.8688 299.378 85.1401C300.671 82.2558 302.037 80.2679 304.378 78.1401Z" fill="white"/>
<path d="M246.378 33.1402C247.368 33.1402 248.358 33.1402 249.378 33.1402C249.708 34.1302 250.038 35.1202 250.378 36.1402C249.058 37.4602 247.738 38.7802 246.378 40.1402C245.253 35.3902 245.253 35.3902 246.378 33.1402Z" fill="white"/>
<path d="M194.378 173.14C195.368 173.47 196.358 173.8 197.378 174.14C198.065 176.203 198.065 176.203 198.378 178.14C197.388 178.8 196.398 179.46 195.378 180.14C194.718 181.46 194.058 182.78 193.378 184.14C193.708 180.51 194.038 176.88 194.378 173.14Z" fill="white"/>
<path d="M207.378 139.14C209.253 139.39 209.253 139.39 211.378 140.14C212.628 142.203 212.628 142.203 213.378 144.14C212.058 144.47 210.738 144.8 209.378 145.14C208.718 143.16 208.058 141.18 207.378 139.14Z" fill="white"/>
<path d="M337.378 100.14C337.708 101.13 338.038 102.12 338.378 103.14C337.19 104.703 337.19 104.703 335.378 106.14C332.69 105.828 332.69 105.828 330.378 105.14C332.506 102.8 334.493 101.433 337.378 100.14Z" fill="white"/>
<path d="M329.378 104.14C331.753 103.953 331.753 103.953 334.378 104.14C335.038 105.13 335.698 106.12 336.378 107.14C335.388 107.8 334.398 108.46 333.378 109.14C330.378 107.14 330.378 107.14 329.378 104.14Z" fill="white"/>
<path d="M270.378 74.1401C271.368 74.8001 272.358 75.4601 273.378 76.1401C272.192 79.5152 271.102 81.7874 268.378 84.1401C268.198 80.1929 268.284 77.5421 270.378 74.1401Z" fill="white"/>
<path d="M196.378 297.14C196.708 297.8 197.038 298.46 197.378 299.14C198.698 298.81 200.018 298.48 201.378 298.14C201.378 299.13 201.378 300.12 201.378 301.14C199.728 301.47 198.078 301.8 196.378 302.14C196.048 301.15 195.718 300.16 195.378 299.14C195.708 298.48 196.038 297.82 196.378 297.14Z" fill="white"/>
<path d="M309.378 219.14C310.698 219.47 312.018 219.8 313.378 220.14C313.048 221.46 312.718 222.78 312.378 224.14C312.378 223.48 312.378 222.82 312.378 222.14C310.398 222.47 308.418 222.8 306.378 223.14C307.368 221.82 308.358 220.5 309.378 219.14Z" fill="white"/>
<path d="M90.3778 208.14C91.3678 209.46 92.3578 210.78 93.3778 212.14C93.0478 212.8 92.7178 213.46 92.3778 214.14C91.7178 214.14 91.0578 214.14 90.3778 214.14C90.0478 214.8 89.7178 215.46 89.3778 216.14C88.7178 216.14 88.0578 216.14 87.3778 216.14C89.2528 210.39 89.2528 210.39 90.3778 208.14Z" fill="white"/>
<path d="M157.378 207.14C158.368 207.47 159.358 207.8 160.378 208.14C160.065 210.078 160.065 210.078 159.378 212.14C158.388 212.47 157.398 212.8 156.378 213.14C155.718 212.48 155.058 211.82 154.378 211.14C155.368 209.82 156.358 208.5 157.378 207.14Z" fill="white"/>
<path d="M200.378 191.14C200.708 191.8 201.038 192.46 201.378 193.14C204.407 193.798 204.407 193.798 207.378 194.14C207.048 194.8 206.718 195.46 206.378 196.14C204.068 195.81 201.758 195.48 199.378 195.14C199.708 193.82 200.038 192.5 200.378 191.14Z" fill="white"/>
<path d="M323.378 110.14C321.893 111.625 321.893 111.625 320.378 113.14C320.708 113.8 321.038 114.46 321.378 115.14C318.903 114.15 318.903 114.15 316.378 113.14C316.378 112.48 316.378 111.82 316.378 111.14C320.003 109.015 320.003 109.015 323.378 110.14Z" fill="white"/>
<path d="M298.378 161.14C299.038 161.47 299.698 161.8 300.378 162.14C299.718 165.11 299.058 168.08 298.378 171.14C297.718 170.81 297.058 170.48 296.378 170.14C297.253 163.39 297.253 163.39 298.378 161.14Z" fill="white"/>
<path d="M326.378 153.14C328.358 154.13 328.358 154.13 330.378 155.14C330.378 156.13 330.378 157.12 330.378 158.14C329.388 158.47 328.398 158.8 327.378 159.14C326.378 158.14 326.378 158.14 326.315 155.578C326.336 154.773 326.357 153.969 326.378 153.14Z" fill="white"/>
<path d="M433.378 91.1401C434.368 91.8001 435.358 92.4601 436.378 93.1401C436.378 93.8001 436.378 94.4601 436.378 95.1401C434.728 95.8001 433.078 96.4601 431.378 97.1401C431.048 96.4801 430.718 95.8201 430.378 95.1401C431.368 93.8201 432.358 92.5001 433.378 91.1401Z" fill="white"/>
<path d="M545.378 304.14C544.776 306.161 544.105 308.161 543.378 310.14C542.388 310.635 542.388 310.635 541.378 311.14C541.048 309.16 540.718 307.18 540.378 305.14C543.378 304.14 543.378 304.14 545.378 304.14Z" fill="white"/>
<path d="M403.378 185.14C403.708 185.14 404.038 185.14 404.378 185.14C405.065 188.453 405.065 188.453 405.378 192.14C403.94 194.078 403.94 194.078 402.378 195.14C401.22 191.086 401.541 188.922 403.378 185.14Z" fill="white"/>
<path d="M70.4127 430C73.3827 430 76.3527 430 79.4127 430C79.4127 448.15 79.4127 466.3 79.4127 485C85.0227 485 90.6327 485 96.4127 485C96.3663 483.71 96.3199 482.419 96.2721 481.09C96.2346 479.372 96.1982 477.655 96.1627 475.938C96.1292 475.09 96.0957 474.242 96.0612 473.369C95.9679 467.329 96.9183 463.953 100.413 459C105.725 453.564 111.958 450.921 119.6 450.688C127.043 451.298 132.733 454.221 138.413 459C141.348 462.687 143.329 466.796 145.413 471C145.681 470.359 145.949 469.719 146.225 469.059C149.75 461.278 154.229 455.625 162.163 452.062C170.416 449.452 179.675 450.208 187.413 454C193.177 457.658 196.466 462.428 198.413 469C198.81 474.135 198.649 478.809 198.413 484C204.023 484 209.633 484 215.413 484C214.423 480.04 214.423 480.04 213.413 476C213.141 472.936 213.141 472.936 213.104 470.074C213.079 469.031 213.054 467.987 213.028 466.912C212.992 464.743 212.961 462.574 212.934 460.404C212.895 458.849 212.895 458.849 212.854 457.262C212.834 455.853 212.834 455.853 212.813 454.417C212.344 451.583 211.504 450.862 209.413 449C209.538 446.875 209.538 446.875 210.413 445C211.403 444.67 212.393 444.34 213.413 444C213.413 444.66 213.413 445.32 213.413 446C214.073 446 214.733 446 215.413 446C215.103 445.443 214.794 444.886 214.475 444.312C213.355 441.875 212.852 439.638 212.413 437C213.403 437.495 213.403 437.495 214.413 438C216.723 436.02 219.033 434.04 221.413 432C224.647 433.617 226.118 434.476 228.413 437C231.367 435.628 233.853 434.011 236.413 432C237.448 432.9 238.466 433.821 239.475 434.75C240.328 435.516 240.328 435.516 241.198 436.297C242.413 438 242.413 438 242.096 440.203C241.871 440.796 241.645 441.389 241.413 442C242.403 441.67 243.393 441.34 244.413 441C244.413 443.333 244.413 445.667 244.413 448C243.423 448.33 242.433 448.66 241.413 449C242.031 449.144 242.65 449.289 243.288 449.438C245.413 450 245.413 450 247.413 451C247.471 455.562 247.506 460.125 247.538 464.688C247.554 465.981 247.571 467.275 247.589 468.607C247.595 469.855 247.601 471.102 247.608 472.387C247.619 473.534 247.629 474.68 247.64 475.862C247.413 479 247.413 479 245.413 484C255.313 483.505 255.313 483.505 265.413 483C265.743 465.51 266.073 448.02 266.413 430C269.383 430 272.353 430 275.413 430C275.529 437.345 275.617 444.69 275.672 452.037C275.698 455.448 275.733 458.859 275.79 462.27C275.855 466.194 275.879 470.118 275.901 474.043C275.927 475.264 275.953 476.485 275.979 477.743C275.982 486.102 275.982 486.102 273.334 490.277C269.685 492.429 267.404 492.59 263.178 492.523C262.5 492.519 261.821 492.514 261.122 492.509C258.968 492.488 256.816 492.431 254.663 492.375C253.201 492.358 251.738 492.344 250.276 492.332C239.609 492.196 239.609 492.196 238.413 491C236.081 490.901 233.746 490.87 231.413 490.875C230.134 490.872 228.855 490.87 227.538 490.867C224.546 490.641 224.546 490.641 223.413 492C221.185 492.097 218.954 492.122 216.725 492.12C216.017 492.121 215.31 492.122 214.581 492.123C212.194 492.125 209.806 492.119 207.418 492.114C205.714 492.113 204.009 492.113 202.305 492.114C197.662 492.114 193.02 492.108 188.378 492.101C183.532 492.095 178.686 492.095 173.84 492.093C164.656 492.09 155.473 492.082 146.29 492.072C135.837 492.061 125.385 492.055 114.933 492.05C93.4265 492.04 71.9196 492.022 50.4127 492C50.2812 493.253 50.1498 494.506 50.0143 495.797C49.5612 500.114 48.2977 502.66 45.4127 506C39.4654 510.302 34.6947 510.589 27.4752 510.438C26.0492 510.448 26.0492 510.448 24.5944 510.459C17.8453 510.399 11.8508 509.741 6.38929 505.387C5.94328 504.826 5.49726 504.265 5.03773 503.688C4.57625 503.134 4.11476 502.581 3.63929 502.012C-1.60037 493.418 -0.245599 483.057 1.91273 473.688C2.3983 471.788 2.89292 469.89 3.41273 468C6.38273 468 9.35273 468 12.4127 468C12.1962 468.93 12.1962 468.93 11.9752 469.879C9.00258 483.963 9.00258 483.963 12.3112 497.387C14.1464 500.04 14.1464 500.04 16.4127 501C19.6977 501.291 22.9914 501.278 26.2877 501.312C27.1991 501.342 28.1105 501.371 29.0494 501.4C29.9299 501.409 30.8103 501.417 31.7174 501.426C32.5216 501.44 33.3258 501.455 34.1544 501.47C37.5058 500.773 38.4941 499.859 40.4127 497C41.0234 493.666 41.0177 490.367 41.0221 486.984C41.0386 486.013 41.0552 485.042 41.0722 484.042C41.1208 480.945 41.1421 477.848 41.1627 474.75C41.1909 472.648 41.2208 470.547 41.2526 468.445C41.3265 463.297 41.3761 458.149 41.4127 453C44.3827 453 47.3527 453 50.4127 453C50.4127 463.23 50.4127 473.46 50.4127 484C57.0127 484 63.6127 484 70.4127 484C70.4127 466.18 70.4127 448.36 70.4127 430Z" fill="white"/>
<path d="M575.413 430C578.383 430 581.353 430 584.413 430C584.489 437.741 584.541 445.482 584.578 453.224C584.593 455.857 584.613 458.491 584.639 461.124C584.675 464.91 584.692 468.695 584.706 472.48C584.721 473.658 584.737 474.835 584.753 476.048C584.753 477.149 584.753 478.249 584.753 479.384C584.763 480.832 584.763 480.832 584.774 482.311C584.34 485.542 583.331 487.382 581.413 490C578.322 492.06 577.703 492.248 574.217 492.227C573.376 492.227 572.535 492.227 571.669 492.227C570.766 492.216 569.863 492.206 568.932 492.195C568.004 492.192 567.076 492.19 566.12 492.187C563.155 492.176 560.19 492.15 557.225 492.125C555.215 492.115 553.206 492.106 551.196 492.098C546.268 492.076 541.34 492.041 536.413 492C536.281 493.089 536.15 494.179 536.014 495.301C535.241 500.059 533.71 503.323 529.733 506.227C525.249 508.902 521.468 510.137 516.303 510.098C515.549 510.094 514.795 510.091 514.018 510.088C513.241 510.08 512.464 510.071 511.663 510.062C510.87 510.058 510.077 510.053 509.26 510.049C507.311 510.037 505.362 510.019 503.413 510C503.413 507.36 503.413 504.72 503.413 502C504.582 501.974 505.751 501.948 506.956 501.922C508.504 501.866 510.052 501.808 511.6 501.75C512.369 501.736 513.138 501.722 513.93 501.707C517.753 501.543 519.989 501.251 523.339 499.266C525.493 496.912 526.486 495.033 527.413 492C525.659 492.052 525.659 492.052 523.87 492.105C522.322 492.134 520.773 492.161 519.225 492.188C518.072 492.225 518.072 492.225 516.895 492.264C512.204 492.324 509.248 492.005 505.413 489C501.003 483.96 501.173 479.122 501.1 472.75C501.071 471.916 501.042 471.082 501.012 470.223C500.952 464.269 501.948 460.871 505.413 456C510.673 451.635 515.499 451.318 522.249 451.559C526.834 452.198 530.292 453.524 533.413 457C537.386 462.896 537.939 468.029 537.663 475C537.58 477.97 537.498 480.94 537.413 484C549.623 483.67 561.833 483.34 574.413 483C574.743 465.51 575.073 448.02 575.413 430Z" fill="white"/>
<path d="M391.413 430C394.383 430 397.353 430 400.413 430C400.743 448.15 401.073 466.3 401.413 485C416.876 485.979 416.876 485.979 420.413 482C420.786 478.99 420.786 478.99 420.827 475.461C420.866 474.159 420.904 472.857 420.944 471.516C420.976 470.135 421.007 468.755 421.038 467.375C421.076 465.987 421.115 464.599 421.155 463.211C421.25 459.807 421.335 456.404 421.413 453C424.383 453 427.353 453 430.413 453C430.427 453.832 430.442 454.665 430.457 455.523C430.518 458.615 430.592 461.706 430.675 464.798C430.725 466.793 430.759 468.788 430.794 470.783C430.829 472.037 430.865 473.29 430.901 474.582C430.927 475.739 430.953 476.897 430.98 478.089C431.179 480.989 431.179 480.989 432.796 482.874C435.043 484.439 436.695 484.433 439.413 484.438C440.279 484.457 441.145 484.476 442.038 484.496C444.504 484.209 444.504 484.209 446.029 482.363C447.8 479.339 447.842 477.197 447.925 473.703C447.96 472.498 447.995 471.293 448.032 470.051C448.055 468.797 448.077 467.542 448.1 466.25C448.134 464.98 448.169 463.711 448.204 462.402C448.286 459.268 448.355 456.135 448.413 453C451.053 453 453.693 453 456.413 453C456.438 453.838 456.463 454.675 456.489 455.539C456.584 458.644 456.683 461.748 456.785 464.853C456.85 466.859 456.91 468.865 456.969 470.871C457.011 472.128 457.053 473.385 457.096 474.68C457.133 475.842 457.17 477.005 457.207 478.203C457.231 480.954 457.231 480.954 458.413 483C464.683 483.33 470.953 483.66 477.413 484C477.413 466.18 477.413 448.36 477.413 430C480.383 430 483.353 430 486.413 430C486.529 437.345 486.618 444.69 486.672 452.037C486.698 455.448 486.733 458.859 486.79 462.27C486.855 466.194 486.879 470.118 486.901 474.043C486.927 475.264 486.953 476.485 486.979 477.743C486.982 486.129 486.982 486.129 484.273 490.275C480.93 492.291 479.045 492.607 475.159 492.559C473.975 492.552 472.791 492.544 471.571 492.537C470.343 492.504 469.115 492.471 467.85 492.438C466.619 492.432 465.387 492.426 464.118 492.42C454.7 492.292 454.7 492.292 450.413 490C449.074 490.656 447.742 491.325 446.413 492C443.723 492.192 441.161 492.279 438.475 492.25C437.421 492.262 437.421 492.262 436.344 492.273C433.139 492.261 430.638 492.093 427.659 490.859C426.547 490.434 426.547 490.434 425.413 490C424.824 490.305 424.235 490.609 423.628 490.923C419.161 493.095 413.854 492.413 408.975 492.438C407.843 492.47 406.71 492.503 405.544 492.537C404.45 492.544 403.356 492.551 402.229 492.559C400.736 492.579 400.736 492.579 399.212 492.599C395.023 491.702 393.795 490.599 391.413 487C390.723 482.676 390.832 478.412 390.925 474.043C390.932 472.785 390.939 471.527 390.946 470.231C390.969 466.898 391.014 463.566 391.069 460.234C391.121 456.828 391.143 453.423 391.169 450.018C391.224 443.345 391.307 436.672 391.413 430Z" fill="white"/>
<path d="M363.413 453C366.383 453 369.353 453 372.413 453C372.512 459.262 372.584 465.524 372.632 471.787C372.652 473.915 372.68 476.043 372.714 478.17C372.763 481.239 372.786 484.306 372.803 487.375C372.824 488.318 372.845 489.261 372.866 490.233C372.868 496.296 371.946 500.968 368.413 506C362.38 510.795 354.95 510.239 347.6 510.312C346.64 510.342 345.681 510.371 344.692 510.4C338.453 510.456 333.556 509.726 328.413 506C322.066 498.15 321.719 490.786 322.413 481C323.194 476.599 324.211 472.305 325.413 468C328.383 468 331.353 468 334.413 468C334.196 468.947 334.196 468.947 333.975 469.914C331.979 479.534 330.032 490.267 335.413 499C338.574 501.107 339.331 501.249 342.94 501.23C343.815 501.229 344.689 501.227 345.59 501.225C346.501 501.212 347.412 501.2 348.35 501.188C349.71 501.187 349.71 501.187 351.098 501.186C355.151 501.159 358.442 500.993 362.413 500C362.743 484.49 363.073 468.98 363.413 453Z" fill="white"/>
<path d="M179.413 459C184.355 461.341 185.875 463.578 189.413 468C189.413 473.61 189.413 479.22 189.413 485C176.543 485 163.673 485 150.413 485C151.6 475.499 152.874 468.221 160.631 462.156C166.68 458.23 172.3 458.282 179.413 459Z" fill="#78C2AD"/>
<path d="M126.694 459.914C132.208 463.103 135.419 466.756 137.315 472.945C139.413 480.969 139.413 480.969 139.413 485C127.863 485 116.313 485 104.413 485C104.413 468 104.413 468 108.413 462C113.806 458.148 120.529 457.444 126.694 459.914Z" fill="#78C2AD"/>
<path d="M599.413 430C602.383 430 605.353 430 608.413 430C608.413 450.46 608.413 470.92 608.413 492C605.443 492 602.473 492 599.413 492C599.413 471.54 599.413 451.08 599.413 430Z" fill="white"/>
<path d="M289.413 430C292.383 430 295.353 430 298.413 430C298.413 450.46 298.413 470.92 298.413 492C295.443 492 292.473 492 289.413 492C289.413 471.54 289.413 451.08 289.413 430Z" fill="white"/>
<path d="M221.413 432C224.647 433.617 226.118 434.476 228.413 437C231.367 435.628 233.853 434.011 236.413 432C237.448 432.9 238.466 433.821 239.475 434.75C240.044 435.26 240.612 435.771 241.198 436.297C242.413 438 242.413 438 242.096 440.203C241.871 440.796 241.645 441.389 241.413 442C242.403 441.67 243.393 441.34 244.413 441C244.413 443.333 244.413 445.667 244.413 448C243.423 448.33 242.433 448.66 241.413 449C242.733 449.33 244.053 449.66 245.413 450C240.91 450.143 236.408 450.285 231.906 450.427C230.374 450.476 228.842 450.524 227.311 450.573C225.109 450.643 222.907 450.712 220.706 450.781C219.679 450.814 219.679 450.814 218.632 450.848C215.89 450.933 213.156 451 210.413 451C209.725 449.188 209.725 449.188 209.413 447C210.85 445.25 210.85 445.25 212.413 444C212.743 444.66 213.073 445.32 213.413 446C214.073 446 214.733 446 215.413 446C215.103 445.443 214.794 444.886 214.475 444.312C213.355 441.875 212.852 439.638 212.413 437C213.073 437.33 213.733 437.66 214.413 438C216.723 436.02 219.033 434.04 221.413 432Z" fill="#78C2AD"/>
<path d="M524.413 460C526.706 461.363 526.706 461.363 528.413 464C528.899 467.596 528.788 471.13 528.663 474.75C528.645 475.734 528.627 476.717 528.608 477.731C528.561 480.155 528.495 482.577 528.413 485C526.351 485.109 524.288 485.186 522.225 485.25C520.502 485.32 520.502 485.32 518.745 485.391C514.773 484.925 513.225 483.776 510.413 481C508.073 476.321 508.919 470.08 509.413 465C512.637 459.196 518.242 458.545 524.413 460Z" fill="#78C2AD"/>
<path d="M266.413 430C268.723 430 271.033 430 273.413 430C273.514 437.617 273.584 445.234 273.632 452.852C273.653 455.443 273.68 458.035 273.714 460.627C273.763 464.35 273.786 468.073 273.803 471.797C273.824 472.957 273.845 474.118 273.866 475.314C273.866 476.394 273.867 477.475 273.867 478.589C273.876 479.539 273.885 480.49 273.894 481.469C273.277 484.713 271.894 485.909 269.413 488C268.57 487.511 268.57 487.511 267.711 487.012C265.14 485.88 263.441 485.769 260.647 485.805C259.758 485.811 258.868 485.818 257.952 485.824C257.031 485.841 256.111 485.858 255.163 485.875C253.759 485.889 253.759 485.889 252.327 485.902C250.022 485.926 247.717 485.959 245.413 486C245.413 485.67 245.413 485.34 245.413 485C245.983 484.975 246.553 484.95 247.141 484.924C249.711 484.808 252.281 484.686 254.85 484.562C255.748 484.523 256.646 484.484 257.571 484.443C258.425 484.401 259.279 484.36 260.159 484.316C260.95 484.28 261.74 484.243 262.555 484.205C264.427 484.194 264.427 484.194 265.413 483C265.536 481.344 265.591 479.682 265.618 478.021C265.638 476.96 265.658 475.899 265.678 474.806C265.695 473.652 265.712 472.498 265.729 471.309C265.75 470.134 265.771 468.959 265.792 467.748C265.858 463.978 265.917 460.208 265.975 456.438C266.018 453.889 266.062 451.34 266.106 448.791C266.213 442.527 266.315 436.264 266.413 430Z" fill="white"/>
<path d="M222.413 459C227.693 459 232.973 459 238.413 459C238.494 462.25 238.553 465.499 238.6 468.75C238.625 469.67 238.65 470.591 238.676 471.539C238.686 472.429 238.696 473.318 238.706 474.234C238.721 475.051 238.737 475.868 238.753 476.71C238.329 479.56 237.371 480.915 235.413 483C233.038 483.531 233.038 483.531 230.413 483.5C229.546 483.51 228.68 483.521 227.788 483.531C225.413 483 225.413 483 223.783 481.265C222.201 478.651 222.062 477.261 222.12 474.234C222.129 473.345 222.139 472.455 222.149 471.539C222.174 470.619 222.199 469.698 222.225 468.75C222.246 467.346 222.246 467.346 222.266 465.914C222.302 463.609 222.355 461.304 222.413 459Z" fill="#78C2AD"/>
<path d="M221.413 432C224.297 433.293 226.285 434.659 228.413 437C231.367 435.628 233.853 434.011 236.413 432C237.448 432.9 238.466 433.821 239.475 434.75C240.044 435.26 240.612 435.771 241.198 436.297C242.413 438 242.413 438 242.225 440.062C241.141 442.647 239.473 444.139 237.413 446C234.919 444.796 232.731 443.546 230.413 442C230.413 441.34 230.413 440.68 230.413 440C228.103 441.98 225.793 443.96 223.413 446C219.85 444.218 218.056 442.832 215.413 440C216.855 436.634 218.745 434.49 221.413 432Z" fill="white"/>
<path d="M27.3502 435.938C30.2675 437.44 32.2026 439.606 34.4127 442C32.8297 446.274 29.907 448.265 26.4127 451C24.1027 448.69 21.7927 446.38 19.4127 444C23.3799 436.066 23.3799 436.066 27.3502 435.938Z" fill="white"/>
<path d="M348.413 436C351.85 437.528 354.602 439.502 357.413 442C357.413 444 357.413 444 355.163 446.5C352.413 449 352.413 449 348.413 451C346.103 448.69 343.793 446.38 341.413 444C347.288 437.125 347.288 437.125 348.413 436Z" fill="white"/>
<path d="M25.4127 436C25.7427 436.66 26.0727 437.32 26.4127 438C26.0827 438.66 25.7527 439.32 25.4127 440C26.0727 440 26.7327 440 27.4127 440C26.7527 442.31 26.0927 444.62 25.4127 447C22.4127 447 22.4127 447 20.7252 445.5C20.2921 445.005 19.859 444.51 19.4127 444C20.8553 440.634 22.7454 438.49 25.4127 436Z" fill="white"/>
<path d="M221.413 432C224.78 433.393 226.399 434.979 228.413 438C226.746 438 225.079 438 223.413 438C222.753 438.66 222.093 439.32 221.413 440C221.413 439.34 221.413 438.68 221.413 438C219.433 438.66 217.453 439.32 215.413 440C216.855 436.634 218.745 434.49 221.413 432Z" fill="white"/>
<path d="M221.413 432C224.78 433.393 226.399 434.979 228.413 438C225.413 438 225.413 438 222.413 436C221.725 433.875 221.725 433.875 221.413 432Z" fill="white"/>
<path d="M25.4127 436C26.4127 438 26.4127 438 26.4127 442C24.7627 442.33 23.1127 442.66 21.4127 443C21.9764 439.73 22.9123 438.174 25.4127 436Z" fill="white"/>
</svg>
