<svg width="44" height="42" viewBox="0 0 44 42" fill="none" xmlns="http://www.w3.org/2000/svg">
<path d="M13.66 17.53C13.52 17.49 13.3833 17.43 13.25 17.35C13.1233 17.2633 13.0067 17.1567 12.9 17.03C12.8 16.9033 12.72 16.76 12.66 16.6C12.6 16.4333 12.57 16.2567 12.57 16.07C12.57 15.73 12.6467 15.44 12.8 15.2C12.96 14.9533 13.1667 14.7667 13.42 14.64C13.68 14.5133 13.9633 14.45 14.27 14.45C14.3833 14.45 14.5067 14.4633 14.64 14.49C14.7733 14.51 14.9 14.5367 15.02 14.57L14.89 15.32C14.79 15.2933 14.6833 15.2733 14.57 15.26C14.4567 15.24 14.3567 15.23 14.27 15.23C14.07 15.23 13.9 15.27 13.76 15.35C13.6267 15.4233 13.5267 15.5233 13.46 15.65C13.3933 15.7767 13.36 15.9167 13.36 16.07C13.36 16.2833 13.4233 16.4767 13.55 16.65C13.6767 16.8167 13.83 16.95 14.01 17.05C14.19 17.15 14.3633 17.2 14.53 17.2L13.66 17.53ZM12.4 18.58L12.17 17.82C12.4367 17.76 12.7533 17.6767 13.12 17.57C13.4933 17.4633 13.8833 17.3433 14.29 17.21C14.6967 17.07 15.0867 16.9233 15.46 16.77L15.76 17.5C15.5667 17.58 15.3233 17.6733 15.03 17.78C14.7433 17.88 14.4367 17.98 14.11 18.08C13.79 18.1867 13.48 18.2833 13.18 18.37C12.88 18.4633 12.62 18.5333 12.4 18.58ZM19.0213 18.05C18.488 18.05 18.078 17.99 17.7913 17.87C17.5113 17.75 17.318 17.5633 17.2113 17.31C17.1047 17.0567 17.0447 16.73 17.0313 16.33L16.8313 10.86H17.6513L17.8513 16.01C17.8647 16.3367 17.8947 16.59 17.9413 16.77C17.9947 16.9433 18.108 17.0633 18.2813 17.13C18.4613 17.1967 18.7413 17.23 19.1213 17.23C19.2613 17.23 19.3613 17.27 19.4213 17.35C19.488 17.4233 19.5213 17.5133 19.5213 17.62C19.5213 17.7267 19.4747 17.8267 19.3813 17.92C19.288 18.0067 19.168 18.05 19.0213 18.05ZM19.0215 18.05L19.1215 17.23C19.4548 17.23 19.7148 17.2067 19.9015 17.16C20.0882 17.1067 20.2282 17.01 20.3215 16.87C20.4215 16.7233 20.5015 16.5133 20.5615 16.24C20.6215 15.9667 20.6948 15.61 20.7815 15.17L21.5615 15.32C21.5348 15.44 21.5048 15.5733 21.4715 15.72C21.4382 15.8667 21.4082 16.0133 21.3815 16.16C21.3615 16.3 21.3515 16.4233 21.3515 16.53C21.3515 16.63 21.3582 16.7233 21.3715 16.81C21.3848 16.8967 21.4348 16.97 21.5215 17.03C21.6082 17.09 21.7548 17.14 21.9615 17.18C22.1682 17.2133 22.4648 17.23 22.8515 17.23C22.9915 17.23 23.0915 17.27 23.1515 17.35C23.2182 17.4233 23.2515 17.5133 23.2515 17.62C23.2515 17.7267 23.2048 17.8267 23.1115 17.92C23.0182 18.0067 22.8982 18.05 22.7515 18.05C22.3448 18.05 22.0215 18.03 21.7815 17.99C21.5415 17.9433 21.3582 17.8767 21.2315 17.79C21.1115 17.7033 21.0248 17.5967 20.9715 17.47C20.9248 17.3367 20.8882 17.1833 20.8615 17.01L21.1615 17.03C21.0548 17.2433 20.9382 17.4167 20.8115 17.55C20.6915 17.6833 20.5515 17.7867 20.3915 17.86C20.2315 17.9333 20.0382 17.9833 19.8115 18.01C19.5915 18.0367 19.3282 18.05 19.0215 18.05ZM21.5415 19.94C21.4015 19.94 21.2815 19.89 21.1815 19.79C21.0882 19.6967 21.0415 19.5833 21.0415 19.45C21.0415 19.3167 21.0882 19.2 21.1815 19.1C21.2815 19 21.4015 18.95 21.5415 18.95C21.6748 18.95 21.7882 19 21.8815 19.1C21.9815 19.2 22.0315 19.3167 22.0315 19.45C22.0315 19.5833 21.9815 19.6967 21.8815 19.79C21.7882 19.89 21.6748 19.94 21.5415 19.94ZM20.1715 19.94C20.0315 19.94 19.9115 19.89 19.8115 19.79C19.7182 19.6967 19.6715 19.5833 19.6715 19.45C19.6715 19.3167 19.7182 19.2 19.8115 19.1C19.9115 19 20.0315 18.95 20.1715 18.95C20.3048 18.95 20.4182 19 20.5115 19.1C20.6115 19.2 20.6615 19.3167 20.6615 19.45C20.6615 19.5833 20.6115 19.6967 20.5115 19.79C20.4182 19.89 20.3048 19.94 20.1715 19.94ZM22.752 18.05L22.842 17.23C23.1886 17.23 23.5286 17.2033 23.862 17.15C24.1953 17.0967 24.522 17.02 24.842 16.92C25.162 16.82 25.4686 16.7 25.762 16.56C26.062 16.4133 26.3453 16.2467 26.612 16.06C26.4386 15.9067 26.2386 15.7733 26.012 15.66C25.7853 15.5467 25.5353 15.46 25.262 15.4C24.9953 15.3333 24.712 15.3 24.412 15.3C24.3053 15.3 24.2053 15.3033 24.112 15.31C24.0186 15.3167 23.9253 15.33 23.832 15.35C23.7386 15.3633 23.632 15.3833 23.512 15.41L23.352 14.65C23.532 14.5967 23.712 14.5567 23.892 14.53C24.072 14.4967 24.2453 14.48 24.412 14.48C24.7586 14.48 25.072 14.5233 25.352 14.61C25.632 14.69 25.8853 14.79 26.112 14.91C26.3453 15.03 26.562 15.15 26.762 15.27C26.9686 15.39 27.1686 15.4933 27.362 15.58C27.5553 15.66 27.7553 15.7 27.962 15.7H28.172L28.242 16.42C27.9553 16.42 27.692 16.46 27.452 16.54C27.212 16.62 26.9753 16.7233 26.742 16.85C26.5153 16.97 26.2753 17.1 26.022 17.24C25.7686 17.3733 25.4886 17.5033 25.182 17.63C24.8753 17.75 24.522 17.85 24.122 17.93C23.7286 18.01 23.272 18.05 22.752 18.05ZM29.5606 18L29.3606 10.86H30.1706L30.3706 18H29.5606ZM29.2906 21.03L29.1706 20.49C29.344 20.45 29.484 20.4167 29.5906 20.39C29.6973 20.3633 29.8173 20.3333 29.9506 20.3L29.9006 20.51C29.7273 20.4567 29.5606 20.3433 29.4006 20.17C29.2473 19.9967 29.1706 19.8 29.1706 19.58C29.1706 19.38 29.2173 19.21 29.3106 19.07C29.4106 18.9367 29.5373 18.8367 29.6906 18.77C29.8506 18.7033 30.0206 18.67 30.2006 18.67C30.274 18.67 30.3506 18.6767 30.4306 18.69C30.5173 18.7033 30.5973 18.7233 30.6706 18.75L30.5906 19.25C30.524 19.2367 30.4606 19.2233 30.4006 19.21C30.3406 19.1967 30.274 19.19 30.2006 19.19C30.0473 19.19 29.9273 19.22 29.8406 19.28C29.754 19.3467 29.7106 19.4367 29.7106 19.55C29.7106 19.69 29.754 19.81 29.8406 19.91C29.934 20.01 30.0373 20.0867 30.1506 20.14C30.2706 20.2 30.3673 20.23 30.4406 20.23L30.0306 20.27C30.2106 20.2233 30.3773 20.1733 30.5306 20.12C30.6906 20.0733 30.834 20.0267 30.9606 19.98L31.1206 20.49C30.9606 20.55 30.7706 20.6133 30.5506 20.68C30.3373 20.7467 30.1206 20.81 29.9006 20.87C29.6806 20.93 29.4773 20.9833 29.2906 21.03Z" fill="white"/>
<path d="M16.86 30.05C16.5 30.05 16.18 30 15.9 29.9C15.6267 29.7933 15.4067 29.6167 15.24 29.37C15.08 29.1167 14.99 28.7667 14.97 28.32L14.81 24.84H15.62L15.78 28.14C15.8 28.4533 15.8567 28.69 15.95 28.85C16.0433 29.0033 16.1733 29.1067 16.34 29.16C16.5133 29.2067 16.72 29.23 16.96 29.23C17.1 29.23 17.2 29.27 17.26 29.35C17.3267 29.4233 17.36 29.5133 17.36 29.62C17.36 29.7267 17.3133 29.8267 17.22 29.92C17.1267 30.0067 17.0067 30.05 16.86 30.05ZM15.35 28.95C14.97 29.07 14.6 29.13 14.24 29.13C13.88 29.13 13.5533 29.0767 13.26 28.97C12.9667 28.8633 12.7333 28.71 12.56 28.51C12.3867 28.3033 12.3 28.0567 12.3 27.77C12.3 27.49 12.37 27.2267 12.51 26.98C12.6567 26.7333 12.8533 26.5133 13.1 26.32C13.3533 26.1267 13.6433 25.9667 13.97 25.84C14.3033 25.7067 14.6567 25.6167 15.03 25.57L15.17 26.41C14.8367 26.4233 14.54 26.47 14.28 26.55C14.0267 26.6233 13.81 26.72 13.63 26.84C13.4567 26.96 13.3233 27.09 13.23 27.23C13.1367 27.37 13.09 27.5067 13.09 27.64C13.09 27.7867 13.1433 27.9067 13.25 28C13.3567 28.0933 13.4933 28.1667 13.66 28.22C13.8267 28.2667 14.01 28.2967 14.21 28.31C14.41 28.3167 14.6033 28.31 14.79 28.29C14.9767 28.2633 15.1367 28.2267 15.27 28.18L15.35 28.95ZM15.14 23.69C15 23.69 14.88 23.6433 14.78 23.55C14.6867 23.45 14.64 23.3333 14.64 23.2C14.64 23.0667 14.6867 22.95 14.78 22.85C14.88 22.75 15 22.7 15.14 22.7C15.2733 22.7 15.3867 22.75 15.48 22.85C15.58 22.95 15.63 23.0667 15.63 23.2C15.63 23.3333 15.58 23.45 15.48 23.55C15.3867 23.6433 15.2733 23.69 15.14 23.69ZM13.77 23.69C13.63 23.69 13.51 23.6433 13.41 23.55C13.3167 23.45 13.27 23.3333 13.27 23.2C13.27 23.0667 13.3167 22.95 13.41 22.85C13.51 22.75 13.63 22.7 13.77 22.7C13.9033 22.7 14.0167 22.75 14.11 22.85C14.21 22.95 14.26 23.0667 14.26 23.2C14.26 23.3333 14.21 23.45 14.11 23.55C14.0167 23.6433 13.9033 23.69 13.77 23.69ZM16.8633 30.05L16.9633 29.23C17.3633 29.23 17.7399 29.1933 18.0933 29.12C18.4466 29.04 18.7699 28.9367 19.0633 28.81C19.3633 28.6767 19.6199 28.5267 19.8333 28.36C20.0466 28.1867 20.2099 28.01 20.3233 27.83C20.4433 27.6433 20.5033 27.46 20.5033 27.28C20.5033 27.1933 20.4733 27.1067 20.4133 27.02C20.3533 26.9267 20.2499 26.85 20.1033 26.79C19.9633 26.73 19.7733 26.7 19.5333 26.7C19.3866 26.7 19.2233 26.72 19.0433 26.76C18.8633 26.8 18.6899 26.8567 18.5233 26.93C18.3633 26.9967 18.2299 27.0733 18.1233 27.16C18.3033 27.3067 18.4699 27.45 18.6233 27.59C18.7833 27.73 18.9466 27.8833 19.1133 28.05C19.2799 28.21 19.4599 28.3933 19.6533 28.6C19.8066 28.7133 19.9766 28.81 20.1633 28.89C20.3566 28.97 20.5633 29.0367 20.7833 29.09C21.0099 29.1367 21.2399 29.1733 21.4733 29.2C21.7066 29.22 21.9399 29.23 22.1733 29.23C22.3133 29.23 22.4133 29.27 22.4733 29.35C22.5399 29.4233 22.5733 29.5133 22.5733 29.62C22.5733 29.7267 22.5266 29.8267 22.4333 29.92C22.3399 30.0067 22.2199 30.05 22.0733 30.05C21.7066 30.05 21.3299 30.0167 20.9433 29.95C20.5633 29.8767 20.2066 29.77 19.8733 29.63C19.5399 29.4833 19.2566 29.3 19.0233 29.08C18.9099 28.9333 18.7833 28.7867 18.6433 28.64C18.5033 28.4933 18.3499 28.3467 18.1833 28.2C18.0233 28.0467 17.8499 27.9033 17.6633 27.77C17.6233 27.7367 17.5833 27.6767 17.5433 27.59C17.5033 27.5033 17.4699 27.4133 17.4433 27.32C17.4166 27.2267 17.4033 27.1567 17.4033 27.11C17.4033 27.01 17.4666 26.89 17.5933 26.75C17.7199 26.61 17.8899 26.4767 18.1033 26.35C18.3166 26.2167 18.5599 26.1067 18.8333 26.02C19.1066 25.9333 19.3899 25.89 19.6833 25.89C20.0633 25.89 20.3699 25.9467 20.6033 26.06C20.8433 26.1733 21.0166 26.32 21.1233 26.5C21.2366 26.6733 21.2933 26.86 21.2933 27.06C21.2933 27.3533 21.2199 27.6467 21.0733 27.94C20.9266 28.2267 20.7166 28.4967 20.4433 28.75C20.1699 29.0033 19.8499 29.23 19.4833 29.43C19.1166 29.6233 18.7099 29.7767 18.2633 29.89C17.8233 29.9967 17.3566 30.05 16.8633 30.05ZM19.6133 24.86C19.4733 24.86 19.3533 24.8133 19.2533 24.72C19.1599 24.62 19.1133 24.5033 19.1133 24.37C19.1133 24.2367 19.1599 24.12 19.2533 24.02C19.3533 23.92 19.4733 23.87 19.6133 23.87C19.7466 23.87 19.8599 23.92 19.9533 24.02C20.0533 24.12 20.1033 24.2367 20.1033 24.37C20.1033 24.5033 20.0533 24.62 19.9533 24.72C19.8599 24.8133 19.7466 24.86 19.6133 24.86ZM22.0781 30.05L22.1681 29.23C22.5481 29.23 22.8148 29.1933 22.9681 29.12C23.1215 29.0467 23.2081 28.9167 23.2281 28.73C23.2548 28.5433 23.2615 28.2833 23.2481 27.95L23.0781 22.86H23.9081L24.0681 27.93C24.0815 28.27 24.1348 28.5367 24.2281 28.73C24.3281 28.9167 24.4615 29.0467 24.6281 29.12C24.7948 29.1933 24.9781 29.23 25.1781 29.23C25.3181 29.23 25.4181 29.27 25.4781 29.35C25.5448 29.4233 25.5781 29.5133 25.5781 29.62C25.5781 29.7267 25.5315 29.8267 25.4381 29.92C25.3448 30.0067 25.2248 30.05 25.0781 30.05C24.7981 30.05 24.5648 30.0067 24.3781 29.92C24.1981 29.8267 24.0548 29.71 23.9481 29.57C23.8481 29.4233 23.7815 29.27 23.7481 29.11L23.9581 29.13C23.8915 29.33 23.7815 29.5 23.6281 29.64C23.4815 29.7733 23.2815 29.8767 23.0281 29.95C22.7748 30.0167 22.4581 30.05 22.0781 30.05ZM25.0762 30.05L25.1662 29.23C25.5462 29.23 25.8128 29.1933 25.9662 29.12C26.1195 29.0467 26.2062 28.9167 26.2262 28.73C26.2528 28.5433 26.2595 28.2833 26.2462 27.95L26.0562 22.86H26.8662L27.0662 27.86C27.0795 28.2133 27.0662 28.5267 27.0262 28.8C26.9928 29.0733 26.9062 29.3033 26.7662 29.49C26.6328 29.6767 26.4295 29.8167 26.1562 29.91C25.8895 30.0033 25.5295 30.05 25.0762 30.05ZM28.5938 30L28.3938 22.86H29.2038L29.4038 30H28.5938Z" fill="white"/>
<path d="M43.5 21C43.5 32.3002 33.8963 41.5 22 41.5C10.1037 41.5 0.5 32.3002 0.5 21C0.5 9.69983 10.1037 0.5 22 0.5C33.8963 0.5 43.5 9.69983 43.5 21Z" stroke="white"/>
</svg>
